<svg xmlns="http://www.w3.org/2000/svg" viewBox="0 0 32 32" fill="none">
  <rect width="32" height="32" rx="8" fill="url(#g)"/>
  <path d="M8 22V10h4.5c2.2 0 3.5 1.2 3.5 3s-1.3 3-3.5 3H11v6H8zm3-8.5h1.3c.9 0 1.4-.4 1.4-1.1s-.5-1.1-1.4-1.1H11v2.2zm7.5 8.5 3.5-12h3.3l3.5 12h-3.1l-.7-2.5h-3.2l-.7 2.5h-3.1zm4.5-5.2-.9-3.2-.9 3.2h1.8z" fill="white"/>
  <defs>
    <linearGradient id="g" x1="0" y1="0" x2="32" y2="32">
      <stop stop-color="#8b5cf6"/>
      <stop offset="1" stop-color="#6d28d9"/>
    </linearGradient>
  </defs>
</svg>
